<?xml version="1.0" encoding="utf-8"?>
<svg viewBox="108.211 65.779 307.685 210.14" xmlns="http://www.w3.org/2000/svg">
  <g>
    <path d="M 302.823 124.578 L 264.658 124.578 L 264.658 116.323 C 264.658 115.233 263.774 114.349 262.683 114.349 L 251.476 114.349 L 251.476 105.556 C 251.476 104.87 250.92 104.313 250.233 104.313 L 235.797 104.313 C 235.11 104.313 234.554 104.87 234.554 105.556 L 234.554 114.352 L 221.378 114.352 C 220.288 114.352 219.404 115.236 219.404 116.326 L 219.404 124.581 L 183.011 124.581 C 182.79 124.582 182.612 124.762 182.612 124.982 L 182.612 234.56 C 182.612 234.78 182.79 234.959 183.011 234.961 L 207.197 234.961 C 207.419 234.961 207.599 234.781 207.599 234.56 L 207.599 219.817 C 207.6 219.596 207.779 219.417 208 219.415 L 218.217 219.415 C 218.438 219.417 218.617 219.596 218.618 219.817 L 218.618 234.56 C 218.618 234.78 218.796 234.959 219.017 234.961 L 266.81 234.961 C 267.032 234.959 267.21 234.781 267.212 234.56 L 267.212 219.817 C 267.212 219.596 267.39 219.417 267.611 219.415 L 277.827 219.415 C 278.049 219.415 278.229 219.595 278.229 219.817 L 278.229 234.56 C 278.231 234.781 278.409 234.959 278.63 234.961 L 302.817 234.961 C 303.038 234.959 303.217 234.781 303.218 234.56 L 303.218 124.979 C 303.217 124.76 303.042 124.583 302.823 124.578 Z M 203.269 214.295 C 203.269 214.515 203.091 214.694 202.871 214.694 L 187.932 214.694 C 187.711 214.695 187.53 214.517 187.53 214.295 L 187.53 209.207 C 187.53 208.986 187.71 208.806 187.932 208.806 L 202.88 208.806 C 203.1 208.808 203.278 208.987 203.278 209.207 Z M 203.269 201.111 C 203.271 201.331 203.092 201.512 202.871 201.512 L 187.932 201.512 C 187.71 201.513 187.529 201.333 187.53 201.111 L 187.53 196.011 C 187.529 195.789 187.71 195.608 187.932 195.61 L 202.88 195.61 C 203.101 195.61 203.28 195.79 203.278 196.011 Z M 203.269 187.929 C 203.269 188.149 203.092 188.328 202.871 188.33 L 187.932 188.33 C 187.71 188.33 187.53 188.15 187.53 187.929 L 187.53 182.826 C 187.53 182.605 187.71 182.425 187.932 182.425 L 202.88 182.425 C 203.1 182.427 203.278 182.606 203.278 182.826 Z M 203.269 174.744 C 203.271 174.965 203.092 175.146 202.871 175.146 L 187.932 175.146 C 187.71 175.147 187.529 174.967 187.53 174.744 L 187.53 169.659 C 187.529 169.437 187.71 169.256 187.932 169.258 L 202.88 169.258 C 203.101 169.258 203.28 169.438 203.278 169.659 Z M 203.269 161.562 C 203.269 161.783 203.092 161.962 202.871 161.964 L 187.932 161.964 C 187.71 161.964 187.53 161.784 187.53 161.562 L 187.53 156.46 C 187.53 156.238 187.711 156.06 187.932 156.061 L 202.88 156.061 C 203.1 156.061 203.278 156.24 203.278 156.46 Z M 203.269 148.381 C 203.269 148.601 203.091 148.779 202.871 148.779 L 187.932 148.779 C 187.711 148.781 187.53 148.602 187.53 148.381 L 187.53 143.278 C 187.53 143.056 187.71 142.877 187.932 142.877 L 202.88 142.877 C 203.1 142.878 203.278 143.058 203.278 143.278 Z M 203.269 135.196 C 203.271 135.418 203.092 135.598 202.871 135.598 L 187.932 135.598 C 187.71 135.599 187.529 135.419 187.53 135.196 L 187.53 130.112 C 187.529 129.889 187.71 129.708 187.932 129.71 L 202.88 129.71 C 203.101 129.71 203.28 129.89 203.278 130.112 Z M 238.687 214.292 C 238.687 214.514 238.507 214.692 238.286 214.691 L 223.347 214.691 C 223.126 214.691 222.947 214.513 222.945 214.292 L 222.945 209.207 C 222.947 208.986 223.125 208.808 223.347 208.806 L 238.286 208.806 C 238.507 208.806 238.687 208.986 238.687 209.207 Z M 238.687 201.108 C 238.689 201.33 238.508 201.51 238.286 201.509 L 223.347 201.509 C 223.125 201.509 222.945 201.329 222.945 201.108 L 222.945 196.011 C 222.945 195.789 223.125 195.61 223.347 195.61 L 238.286 195.61 C 238.508 195.608 238.689 195.789 238.687 196.011 Z M 238.687 187.926 C 238.687 188.147 238.507 188.327 238.286 188.327 L 223.347 188.327 C 223.125 188.325 222.947 188.147 222.945 187.926 L 222.945 182.826 C 222.947 182.605 223.125 182.427 223.347 182.425 L 238.286 182.425 C 238.507 182.425 238.687 182.605 238.687 182.826 Z M 238.687 174.741 C 238.689 174.964 238.508 175.144 238.286 175.143 L 223.347 175.143 C 223.125 175.143 222.945 174.963 222.945 174.741 L 222.945 169.659 C 222.945 169.438 223.125 169.258 223.347 169.258 L 238.286 169.258 C 238.508 169.256 238.689 169.437 238.687 169.659 Z M 238.687 161.559 C 238.687 161.781 238.507 161.961 238.286 161.961 L 223.347 161.961 C 223.125 161.959 222.947 161.781 222.945 161.559 L 222.945 156.46 C 222.947 156.239 223.126 156.061 223.347 156.061 L 238.286 156.061 C 238.507 156.06 238.687 156.238 238.687 156.46 Z M 238.687 148.378 C 238.687 148.599 238.507 148.778 238.286 148.776 L 223.347 148.776 C 223.126 148.776 222.947 148.598 222.945 148.378 L 222.945 143.278 C 222.947 143.057 223.125 142.878 223.347 142.877 L 238.286 142.877 C 238.507 142.877 238.687 143.056 238.687 143.278 Z M 238.687 135.193 C 238.689 135.416 238.508 135.596 238.286 135.595 L 223.347 135.595 C 223.125 135.595 222.945 135.415 222.945 135.193 L 222.945 130.112 C 222.945 129.89 223.125 129.71 223.347 129.71 L 238.286 129.71 C 238.508 129.708 238.689 129.889 238.687 130.112 Z M 262.888 214.289 C 262.888 214.511 262.708 214.689 262.487 214.688 L 247.548 214.688 C 247.328 214.688 247.148 214.51 247.147 214.289 L 247.147 209.207 C 247.148 208.986 247.327 208.808 247.548 208.806 L 262.487 208.806 C 262.709 208.806 262.888 208.986 262.888 209.207 Z M 262.888 201.105 C 262.89 201.327 262.709 201.507 262.487 201.506 L 247.548 201.506 C 247.326 201.506 247.147 201.326 247.147 201.105 L 247.147 196.011 C 247.147 195.789 247.326 195.61 247.548 195.61 L 262.487 195.61 C 262.709 195.608 262.89 195.789 262.888 196.011 Z M 262.888 187.923 C 262.888 188.144 262.709 188.324 262.487 188.324 L 247.548 188.324 C 247.327 188.322 247.148 188.144 247.147 187.923 L 247.147 182.826 C 247.148 182.605 247.327 182.427 247.548 182.425 L 262.487 182.425 C 262.709 182.425 262.888 182.605 262.888 182.826 Z M 262.888 174.738 C 262.89 174.961 262.709 175.141 262.487 175.14 L 247.548 175.14 C 247.326 175.14 247.147 174.96 247.147 174.738 L 247.147 169.659 C 247.147 169.438 247.326 169.258 247.548 169.258 L 262.487 169.258 C 262.709 169.256 262.89 169.437 262.888 169.659 Z M 262.888 161.556 C 262.888 161.778 262.709 161.958 262.487 161.958 L 247.548 161.958 C 247.327 161.956 247.148 161.778 247.147 161.556 L 247.147 156.46 C 247.148 156.239 247.328 156.061 247.548 156.061 L 262.487 156.061 C 262.708 156.06 262.888 156.238 262.888 156.46 Z M 262.888 148.375 C 262.888 148.596 262.708 148.775 262.487 148.773 L 247.548 148.773 C 247.328 148.773 247.148 148.596 247.147 148.375 L 247.147 143.278 C 247.148 143.057 247.327 142.878 247.548 142.877 L 262.487 142.877 C 262.709 142.877 262.888 143.056 262.888 143.278 Z M 262.888 135.19 C 262.89 135.413 262.709 135.593 262.487 135.592 L 247.548 135.592 C 247.326 135.592 247.147 135.412 247.147 135.19 L 247.147 130.112 C 247.147 129.89 247.326 129.71 247.548 129.71 L 262.487 129.71 C 262.709 129.708 262.89 129.889 262.888 130.112 Z M 298.306 214.286 C 298.305 214.507 298.126 214.685 297.905 214.685 L 282.966 214.685 C 282.745 214.686 282.564 214.508 282.564 214.286 L 282.564 209.207 C 282.564 208.986 282.744 208.806 282.966 208.806 L 297.905 208.806 C 298.126 208.808 298.305 208.986 298.306 209.207 Z M 298.306 201.102 C 298.306 201.323 298.127 201.503 297.905 201.503 L 282.966 201.503 C 282.744 201.504 282.563 201.324 282.564 201.102 L 282.564 196.011 C 282.563 195.789 282.744 195.608 282.966 195.61 L 297.905 195.61 C 298.127 195.61 298.306 195.789 298.306 196.011 Z M 298.306 187.92 C 298.305 188.141 298.126 188.319 297.905 188.321 L 282.966 188.321 C 282.744 188.321 282.564 188.141 282.564 187.92 L 282.564 182.826 C 282.564 182.605 282.744 182.425 282.966 182.425 L 297.905 182.425 C 298.126 182.427 298.305 182.605 298.306 182.826 Z M 298.306 174.735 C 298.306 174.957 298.127 175.137 297.905 175.137 L 282.966 175.137 C 282.749 175.135 282.573 174.961 282.57 174.744 L 282.57 169.659 C 282.568 169.437 282.749 169.256 282.972 169.258 L 297.911 169.258 C 298.133 169.258 298.312 169.438 298.312 169.659 Z M 298.306 161.553 C 298.305 161.775 298.126 161.953 297.905 161.955 L 282.966 161.955 C 282.744 161.955 282.564 161.775 282.564 161.553 L 282.564 156.46 C 282.564 156.238 282.745 156.06 282.966 156.061 L 297.905 156.061 C 298.126 156.061 298.305 156.239 298.306 156.46 Z M 298.306 148.372 C 298.305 148.593 298.126 148.77 297.905 148.77 L 282.966 148.77 C 282.745 148.772 282.564 148.593 282.564 148.372 L 282.564 143.278 C 282.564 143.056 282.744 142.877 282.966 142.877 L 297.905 142.877 C 298.126 142.878 298.305 143.057 298.306 143.278 Z M 298.306 135.187 C 298.306 135.409 298.127 135.589 297.905 135.589 L 282.966 135.589 C 282.749 135.587 282.573 135.413 282.57 135.196 L 282.57 130.112 C 282.568 129.889 282.749 129.708 282.972 129.71 L 297.911 129.71 C 298.133 129.71 298.312 129.89 298.312 130.112 Z" fill="#f2f2f2" style=""/>
    <path d="M 187.649 78.934 L 183.035 81.86 L 185.835 76.764 C 185.042 76.131 184.061 75.78 183.046 75.767 L 182.972 75.767 C 182.651 75.772 182.331 75.748 182.015 75.696 L 180.451 76.686 L 181.119 75.467 C 180.01 75.08 179.052 74.351 178.384 73.385 L 175.586 75.17 L 177.352 71.955 C 175.716 69.99 173.51 68.786 171.081 68.786 C 168.17 68.786 165.577 70.516 163.903 73.213 C 162.895 74.862 161.076 75.839 159.145 75.77 L 158.99 75.77 C 155.776 75.77 153.171 79.416 153.171 83.909 C 153.171 88.402 155.788 92.05 159.002 92.05 C 159.708 92.047 160.403 91.872 161.027 91.542 C 163.242 90.464 165.817 90.415 168.072 91.405 C 169.977 92.258 172.155 92.258 174.06 91.405 C 176.296 90.435 178.843 90.485 181.039 91.542 C 181.658 91.869 182.346 92.044 183.046 92.05 C 186.26 92.05 188.866 88.405 188.866 83.909 C 188.885 82.175 188.466 80.464 187.649 78.934 Z" fill="#f2f2f2" style=""/>
    <path d="M 178.952 90.843 C 177.272 90.523 175.536 90.712 173.965 91.384 C 172.06 92.235 169.884 92.235 167.979 91.384 C 165.724 90.397 163.15 90.446 160.935 91.521 C 160.311 91.853 159.614 92.028 158.907 92.029 C 156.053 92.029 153.677 89.154 153.183 85.36 C 153.754 84.943 154.238 84.42 154.611 83.82 C 156.284 81.123 158.877 79.392 161.788 79.392 C 164.7 79.392 167.26 81.102 168.925 83.772 C 169.939 85.412 171.739 86.401 173.668 86.377 L 173.742 86.377 C 176.026 86.362 177.994 88.185 178.952 90.843 Z" opacity="0.03" style=""/>
    <path d="M 350.295 70.843 L 347.988 72.303 L 349.385 69.761 C 348.99 69.445 348.5 69.27 347.994 69.264 L 347.958 69.264 C 347.798 69.267 347.637 69.256 347.479 69.228 L 346.701 69.725 L 347.034 69.13 C 346.481 68.937 346.004 68.575 345.669 68.095 L 344.274 68.987 L 345.166 67.385 C 344.421 66.405 343.272 65.815 342.041 65.779 C 340.59 65.779 339.296 66.644 338.473 67.988 C 337.968 68.812 337.059 69.299 336.094 69.264 L 336.016 69.264 C 334.414 69.264 333.114 71.081 333.114 73.323 C 333.114 75.565 334.414 77.382 336.016 77.382 C 336.369 77.381 336.716 77.294 337.027 77.129 C 338.131 76.593 339.415 76.568 340.539 77.06 C 341.491 77.485 342.577 77.485 343.528 77.06 C 344.643 76.578 345.914 76.603 347.01 77.129 C 347.318 77.29 347.661 77.375 348.009 77.376 C 349.612 77.376 350.911 75.559 350.911 73.317 C 350.916 72.454 350.704 71.603 350.295 70.843 Z" fill="#f2f2f2" style=""/>
    <path d="M 345.957 76.781 C 345.119 76.624 344.253 76.718 343.468 77.052 C 343 77.26 342.494 77.367 341.981 77.367 C 341.469 77.364 340.963 77.255 340.495 77.046 C 339.37 76.553 338.085 76.578 336.98 77.114 C 336.669 77.279 336.322 77.366 335.969 77.367 C 334.545 77.367 333.361 75.934 333.114 74.039 C 333.399 73.832 333.641 73.571 333.828 73.273 C 334.661 71.928 335.954 71.063 337.396 71.063 C 338.838 71.063 340.126 71.917 340.964 73.249 C 341.473 74.071 342.377 74.565 343.343 74.548 L 343.382 74.548 C 344.497 74.548 345.478 75.458 345.957 76.781 Z" opacity="0.03" style=""/>
    <path d="M 292.517 97.584 L 289.811 99.3 L 291.453 96.326 C 290.989 95.951 290.413 95.742 289.817 95.732 L 289.772 95.732 C 289.584 95.734 289.396 95.72 289.21 95.69 L 288.294 96.285 L 288.687 95.568 C 288.037 95.342 287.475 94.916 287.081 94.352 L 285.44 95.392 L 286.478 93.507 C 285.593 92.365 284.243 91.682 282.799 91.646 C 281.093 91.646 279.57 92.663 278.589 94.245 C 277.995 95.204 276.933 95.772 275.805 95.732 L 275.713 95.732 C 273.828 95.732 272.303 97.869 272.303 100.489 C 272.303 103.109 273.828 105.262 275.713 105.262 C 276.128 105.261 276.536 105.159 276.903 104.964 C 278.201 104.334 279.711 104.304 281.033 104.884 C 282.151 105.381 283.427 105.381 284.545 104.884 C 285.857 104.316 287.351 104.345 288.639 104.964 C 289.006 105.158 289.414 105.26 289.829 105.262 C 291.714 105.262 293.242 103.127 293.242 100.489 C 293.247 99.475 292.998 98.477 292.517 97.584 Z" fill="#f2f2f2" style=""/>
    <path d="M 287.417 104.569 C 286.432 104.382 285.413 104.493 284.491 104.887 C 283.374 105.384 282.097 105.384 280.98 104.887 C 279.657 104.307 278.148 104.337 276.849 104.967 C 276.483 105.162 276.074 105.264 275.66 105.265 C 273.986 105.265 272.591 103.579 272.303 101.354 C 272.636 101.114 272.92 100.811 273.138 100.462 C 274.12 98.88 275.642 97.866 277.349 97.866 C 279.056 97.866 280.56 98.868 281.542 100.432 C 282.135 101.395 283.191 101.976 284.322 101.961 L 284.354 101.961 C 285.698 101.94 286.855 103.011 287.417 104.569 Z" opacity="0.03" style=""/>
    <path d="M 389.879 235.033 C 389.879 235.544 389.879 236.055 389.846 236.561 C 389.771 238.528 389.534 240.487 389.139 242.416 C 387.185 251.964 381.544 259.386 374.459 261.577 C 373.049 262.016 371.581 262.24 370.105 262.24 C 359.183 262.24 350.331 250.049 350.331 235.033 C 350.331 220.016 359.183 207.825 370.105 207.825 C 380.349 207.825 388.776 218.547 389.778 232.282 C 389.846 233.186 389.879 234.105 389.879 235.033 Z" fill="#36334a" style=""/>
    <path d="M 389.846 236.564 C 389.771 238.531 389.534 240.49 389.139 242.419 C 387.185 251.967 381.544 259.389 374.459 261.58 C 368.972 259.056 364.901 249.594 364.901 238.306 C 364.901 225.086 370.492 214.369 377.39 214.369 C 383.18 214.369 388.05 221.928 389.463 232.184 C 389.659 233.59 389.787 235.059 389.846 236.564 Z" opacity="0.1" style=""/>
    <path d="M 290.563 174.819 C 290.563 174.819 344.087 163.817 372.335 173.926 C 372.335 173.926 376.498 176.008 372.335 179.576 C 372.335 179.576 376.272 183.739 369.397 185.226 L 342.086 186.906 L 290.563 181.658 Z" fill="#3f3d56" style=""/>
    <path d="M 299.93 176.201 C 299.93 176.201 345.755 166.781 369.942 175.437 C 369.942 175.437 373.51 177.221 369.942 180.275 C 369.942 180.275 373.31 183.843 367.426 185.113 L 344.042 186.549 L 299.93 182.062 Z" opacity="0.1" style=""/>
    <path d="M 352.116 192.66 L 348.547 185.523 C 348.547 185.523 350.111 178.304 337.396 176.18 C 336.692 173.031 333.498 170.655 329.665 170.655 C 325.924 170.655 322.796 172.915 321.987 175.948 C 320.162 176.106 318.217 176.32 316.135 176.603 L 313.228 192.196 L 312.865 191.47 C 312.865 191.47 314.711 182.942 298.068 181.696 C 298.975 180.597 299.476 179.218 299.484 177.792 C 299.484 174.012 295.954 170.953 291.604 170.953 C 287.254 170.953 283.724 174.012 283.724 177.792 C 283.736 179.344 284.325 180.837 285.377 181.979 C 283.821 182.127 282.18 182.318 280.453 182.55 L 277.182 200.094 L 292.347 202.175 L 316.433 198.607 L 314.301 194.34 L 328.029 196.225 Z" fill="#005cc6" style=""/>
    <path d="M 352.116 192.66 L 348.547 185.523 C 348.547 185.523 350.111 178.304 337.396 176.18 C 336.692 173.031 333.498 170.655 329.665 170.655 C 325.924 170.655 322.796 172.915 321.987 175.948 C 320.162 176.106 318.217 176.32 316.135 176.603 L 313.228 192.196 L 312.865 191.47 C 312.865 191.47 314.711 182.942 298.068 181.696 C 298.975 180.597 299.476 179.218 299.484 177.792 C 299.484 174.012 295.954 170.953 291.604 170.953 C 287.254 170.953 283.724 174.012 283.724 177.792 C 283.736 179.344 284.325 180.837 285.377 181.979 C 283.821 182.127 282.18 182.318 280.453 182.55 L 277.182 200.094 L 292.347 202.175 L 316.433 198.607 L 314.301 194.34 L 328.029 196.225 Z" opacity="0.2" style=""/>
    <path d="M 300.965 176.864 C 300.965 176.864 298.586 163.519 309.588 163.222 C 320.59 162.924 317.022 182.55 317.022 182.55 C 317.022 182.55 325.348 184.334 325.942 187.605 C 326.537 190.875 297.099 191.768 297.099 191.768 Z" fill="#005cc6" style=""/>
    <path d="M 281.643 247.373 C 281.643 263.132 269.927 275.919 255.476 275.919 C 241.024 275.919 229.309 263.132 229.309 247.373 C 229.309 231.613 241.17 216.299 255.624 216.299 C 270.079 216.299 281.643 231.607 281.643 247.373 Z" fill="#36334a" style=""/>
    <ellipse cx="255.475" cy="248.562" rx="20.815" ry="24.083" opacity="0.1" style=""/>
    <ellipse cx="140.4" cy="244.693" rx="26.167" ry="28.546" fill="#36334a" style=""/>
    <path d="M 185.003 176.603 C 185.003 176.603 172.811 177.197 173.406 183.739 C 174.001 190.281 183.813 185.523 183.813 185.523 Z" fill="#36334a" style=""/>
    <path d="M 286.436 187.5 L 291.455 154.004 C 291.455 154.004 292.645 149.841 276.588 149.841 C 276.588 149.841 225.146 146.57 212.062 151.923 C 212.062 151.923 196.897 157.572 175.785 186.713 C 175.785 186.713 284.354 189.285 286.436 187.5 Z" fill="#3f3d56" style=""/>
    <path d="M 284.616 152.517 L 275.398 189.091 L 269.618 188.951 L 242.261 188.286 L 181.247 186.799 C 181.078 183.908 209.972 154.004 209.972 154.004 Z" fill="#36334a" style=""/>
    <path d="M 242.27 188.286 L 244.762 178.651 C 244.762 178.651 242.383 165.303 253.385 165.006 C 264.387 164.708 260.819 184.334 260.819 184.334 C 260.819 184.334 268.401 185.96 269.609 188.951 Z" fill="#005cc6" opacity="0.2" style=""/>
    <path d="M 390.028 232.951 C 388.244 215.705 377.093 211.988 377.093 211.988 C 366.388 211.393 359.252 252.13 359.252 252.13 L 276.885 259.564 C 276.885 259.564 279.71 224.923 259.787 219.273 C 239.864 213.623 234.661 254.212 233.769 259.862 C 232.877 265.511 113.638 259.267 110.367 256.888 C 107.096 254.509 108.286 231.613 109.178 229.829 C 110.07 228.045 112.449 220.016 112.449 220.016 C 112.449 218.101 113.365 215.681 114.126 214.001 C 114.661 212.811 115.125 211.988 115.125 211.988 C 117.709 197.334 131.125 193.787 132.026 193.552 L 132.074 193.552 C 135.642 189.983 168.649 187.605 168.649 187.605 L 181.137 185.226 L 282.674 187.221 L 286.995 187.307 L 338.616 184.824 L 373.525 183.144 C 381.553 183.144 385.716 203.364 385.716 203.364 C 393.15 221.206 390.028 232.951 390.028 232.951 Z" fill="#3f3d56" style=""/>
    <ellipse cx="455.39" cy="570.05" rx="15.308" ry="9.584" transform="matrix(0.927706, -0.373312, 0.373312, 0.927706, -416.220546, -152.288272)" opacity="0.1" style=""/>
    <ellipse cx="453.39" cy="566.05" rx="15.308" ry="9.584" transform="matrix(0.927706, -0.373312, 0.373312, 0.927706, -413.466213, -150.514743)" fill="#f2f2f2" style=""/>
    <path d="M 132.621 194.159 C 132.469 197.429 131.003 201.557 128.366 205.532 C 124.123 211.931 118.304 215.699 114.721 214.596 C 115.256 213.406 115.72 212.583 115.72 212.583 C 118.304 197.929 131.72 194.381 132.621 194.159 Z" opacity="0.1" style=""/>
    <path d="M 131.729 193.564 C 131.577 196.834 130.111 200.962 127.474 204.937 C 123.231 211.336 117.412 215.104 113.829 214.001 C 114.364 212.811 114.828 211.988 114.828 211.988 C 117.412 197.334 130.828 193.787 131.729 193.564 Z" fill="#f2f2f2" style=""/>
    <polygon points="173.406 202.469 149.915 202.469 148.726 199.199 177.271 199.199 173.406 202.469" fill="#36334a" style=""/>
    <rect x="129.398" y="226.555" width="38.656" height="11.299" fill="#36334a" style=""/>
    <circle cx="209.683" cy="243.504" r="5.352" opacity="0.1" style=""/>
    <circle cx="209.088" cy="242.612" r="5.352" fill="#f2f2f2" style=""/>
    <ellipse cx="112.449" cy="239.341" rx="2.676" ry="5.65" opacity="0.1" style=""/>
    <ellipse cx="111.556" cy="239.044" rx="2.676" ry="5.65" fill="#f2f2f2" style=""/>
    <path d="M 347.357 215.258 C 344.087 225.368 343.789 241.128 343.789 241.128 L 342.6 245.291 L 284.616 251.833 C 284.616 251.833 284.914 222.692 285.805 209.014 C 286.433 199.365 284.105 191.197 282.674 187.221 L 286.995 187.307 L 338.616 184.824 C 347.239 190.87 350.292 206.18 347.357 215.258 Z" fill="#36334a" style=""/>
    <path d="M 334.137 197.031 C 333.278 197.088 332.655 197.873 332.793 198.723 C 332.851 199.064 333.073 199.355 333.388 199.499 C 334.348 199.977 340.742 198.904 343.165 198.476 C 343.903 198.356 344.467 197.754 344.539 197.01 C 344.569 196.588 344.414 196.228 343.795 196.228 Z" fill="#f2f2f2" style=""/>
    <path d="M 282.535 186.118 C 282.535 186.118 284.022 192.66 291.158 190.578 L 293.537 181.36 L 288.779 178.684 Z" fill="#36334a" style=""/>
    <path d="M 291.274 172.835 C 294.545 170.896 299.733 169.202 304.866 173.272 C 307.065 175.009 307.788 178.025 306.617 180.569 C 304.937 184.206 300.95 188.152 291.639 183.427 C 290.726 182.963 289.946 182.273 289.374 181.423 L 289.326 181.351 C 287.425 178.477 288.313 174.598 291.274 172.835 Z" fill="#36334a" style=""/>
    <circle cx="255.624" cy="247.221" r="5.947" fill="#f2f2f2" style=""/>
    <ellipse cx="378.431" cy="236.516" rx="3.271" ry="5.947" fill="#f2f2f2" style=""/>
    <rect x="251.61" y="228.934" width="7.731" height="10.407" rx="12" fill="#36334a" style=""/>
    <path d="M 378.431 217.486 L 378.431 217.486 C 379.581 217.486 380.513 218.418 380.513 219.567 L 380.513 224.325 C 380.513 226.295 378.915 227.893 376.944 227.893 L 376.944 227.893 C 375.795 227.893 374.863 226.961 374.863 225.811 L 374.863 221.054 C 374.863 219.083 376.46 217.486 378.431 217.486 Z" fill="#36334a" style=""/>
    <path d="M 378.431 255.55 L 378.431 255.55 C 376.46 255.55 374.863 253.952 374.863 251.982 L 374.863 248.711 C 374.863 246.74 376.46 245.142 378.431 245.142 L 378.431 245.142 C 380.394 245.142 380.215 246.748 380.215 248.711 L 380.215 251.982 C 380.212 253.944 380.4 255.55 378.431 255.55 Z" fill="#36334a" style=""/>
    <path d="M 369.511 231.164 L 369.511 231.164 C 371.481 231.164 373.079 232.761 373.079 234.732 L 373.079 239.192 C 373.079 240.506 372.013 241.571 370.7 241.571 L 370.7 241.571 C 368.729 241.571 367.132 239.974 367.132 238.003 L 367.132 233.543 C 367.132 232.229 368.197 231.164 369.511 231.164 Z" fill="#36334a" style=""/>
    <path d="M 389.879 235.033 C 389.879 235.544 389.879 236.055 389.846 236.561 C 389.771 238.528 389.534 240.487 389.139 242.416 C 388.942 242.449 388.743 242.466 388.544 242.467 C 386.574 242.467 384.976 240.869 384.976 238.898 L 384.976 235.627 C 384.976 233.657 386.574 232.059 388.544 232.059 C 388.856 232.058 389.165 232.099 389.466 232.181 C 389.573 232.21 389.68 232.243 389.781 232.282 C 389.846 233.186 389.879 234.105 389.879 235.033 Z" fill="#36334a" style=""/>
    <rect x="266.626" y="241.571" width="7.731" height="10.407" rx="12" fill="#36334a" style=""/>
    <rect x="237.485" y="241.571" width="7.731" height="10.407" rx="12" fill="#36334a" style=""/>
    <rect x="251.759" y="257.034" width="7.731" height="10.407" rx="12" fill="#36334a" style=""/>
    <path d="M 401.003 259.918 C 401.818 258.411 400.893 256.561 399.832 255.217 C 398.77 253.873 397.474 252.472 397.5 250.756 C 397.542 248.294 400.155 246.84 402.258 245.535 C 403.809 244.565 405.239 243.415 406.519 242.109 C 407.054 241.606 407.496 241.013 407.828 240.358 C 408.259 239.395 408.247 238.297 408.22 237.242 C 408.13 233.727 407.957 230.215 407.699 226.706" fill="none" stroke="#3f3d56" stroke-miterlimit="10" stroke-width="4" style=""/>
    <path d="M 411.654 226.517 C 411.595 225.208 410.871 224.021 409.736 223.367 L 408.877 225.068 L 408.904 223.008 C 408.493 222.888 408.065 222.837 407.637 222.856 C 404.683 222.994 402.986 226.278 404.583 228.768 C 406.18 231.257 409.872 231.084 411.23 228.457 C 411.539 227.858 411.686 227.189 411.654 226.517 Z" fill="#005cc6" style=""/>
    <path d="M 404.803 252.52 C 403.448 255.149 399.756 255.325 398.157 252.837 C 397.792 252.271 397.583 251.618 397.551 250.944 C 397.523 250.412 397.609 249.88 397.801 249.383 C 398.866 246.621 402.521 246.049 404.38 248.352 C 404.64 248.674 404.846 249.036 404.991 249.425 L 402.591 251.378 L 405.228 250.765 C 405.23 251.376 405.084 251.978 404.803 252.52 Z" fill="#005cc6" style=""/>
    <path d="M 402.906 245.059 C 400.786 245.158 398.987 243.519 398.889 241.399 C 398.86 240.798 398.974 240.198 399.222 239.65 C 399.69 238.612 400.592 237.833 401.687 237.521 L 401.669 239.106 L 402.537 237.382 L 402.537 237.382 C 404.657 237.284 406.454 238.923 406.552 241.042 C 406.575 241.485 406.52 241.929 406.388 242.353 C 405.912 243.898 404.521 244.979 402.906 245.059 Z" fill="#005cc6" style=""/>
    <path d="M 412.234 238.854 C 410.114 238.953 408.315 237.314 408.217 235.193 C 408.185 234.566 408.309 233.94 408.579 233.373 C 409.53 231.358 411.99 230.572 413.932 231.663 L 413.254 233.522 L 414.649 232.181 C 415.397 232.866 415.844 233.82 415.892 234.833 C 415.909 235.189 415.876 235.545 415.794 235.892 C 415.402 237.563 413.949 238.773 412.234 238.854 Z" fill="#005cc6" style=""/>
    <path d="M 411.14 227.539 C 410.248 227.637 409.389 227.911 408.499 227.968 C 407.61 228.024 406.632 227.81 406.07 227.117 C 405.808 226.715 405.571 226.298 405.36 225.868 C 405.116 225.49 404.785 225.176 404.393 224.955 C 404.089 225.547 403.947 226.209 403.98 226.873 C 404.112 229.827 407.393 231.531 409.885 229.939 C 410.751 229.386 411.359 228.51 411.574 227.507 C 411.428 227.513 411.283 227.525 411.14 227.539 Z" opacity="0.1" style=""/>
    <path d="M 412.234 238.854 C 410.114 238.953 408.315 237.314 408.217 235.193 C 408.185 234.566 408.309 233.94 408.579 233.373 C 408.885 233.579 409.147 233.841 409.353 234.146 C 409.626 234.56 409.79 235.039 410.114 235.416 C 410.709 236.118 411.735 236.35 412.662 236.308 C 413.59 236.266 414.482 236.011 415.407 235.919 C 415.535 235.919 415.666 235.898 415.794 235.895 C 415.401 237.565 413.948 238.773 412.234 238.854 Z" opacity="0.1" style=""/>
    <path d="M 402.906 245.059 C 400.786 245.158 398.987 243.519 398.889 241.399 C 398.86 240.798 398.974 240.198 399.222 239.65 C 399.534 239.86 399.805 240.124 400.025 240.43 C 400.322 240.852 400.51 241.322 400.858 241.726 C 401.506 242.449 402.597 242.701 403.578 242.68 C 404.559 242.659 405.446 242.425 406.391 242.353 C 405.915 243.899 404.522 244.981 402.906 245.059 Z" opacity="0.1" style=""/>
    <path d="M 404.803 252.52 C 403.448 255.149 399.756 255.325 398.157 252.837 C 397.792 252.271 397.583 251.618 397.551 250.944 C 397.523 250.412 397.609 249.88 397.801 249.383 C 398.117 249.591 398.4 249.844 398.642 250.135 C 399.008 250.581 399.237 251.086 399.671 251.5 C 400.456 252.273 401.726 252.591 402.853 252.621 C 403.504 252.625 404.156 252.591 404.803 252.52 Z" opacity="0.1" style=""/>
    <path d="M 395.211 258.181 C 395.211 258.181 398.241 258.089 399.156 257.438 C 400.072 256.787 403.819 256.011 404.048 257.054 C 404.277 258.098 408.603 262.246 405.181 262.273 C 401.758 262.3 397.227 261.741 396.314 261.185 C 395.401 260.628 395.211 258.181 395.211 258.181 Z" fill="#656380" style=""/>
    <path d="M 405.24 261.91 C 401.818 261.937 397.286 261.375 396.374 260.822 C 395.68 260.397 395.404 258.88 395.312 258.178 L 395.211 258.178 C 395.211 258.178 395.401 260.625 396.314 261.182 C 397.227 261.738 401.758 262.297 405.181 262.27 C 406.168 262.27 406.51 261.91 406.492 261.378 C 406.356 261.708 405.972 261.904 405.24 261.91 Z" opacity="0.2" style=""/>
  </g>
  <g transform="matrix(0.220707, -0.023197, 0.023197, 0.220707, 194.961731, 237.425095)" style="">
    <title>Logo</title>
    <rect x="474.227" y="-50.222" width="150.846" height="17.24" style="stroke-linejoin: round; stroke: rgb(0, 0, 0); stroke-width: 4px;"/>
    <rect x="474.227" y="-24.362" width="150.846" height="34.479" style="stroke-linejoin: round; stroke: rgb(0, 0, 0); stroke-width: 4px;"/>
    <rect x="474.227" y="18.736" width="150.846" height="25.859" style="stroke-linejoin: round; stroke: rgb(0, 0, 0); stroke-width: 4px;"/>
    <rect x="474.227" y="53.215" width="150.846" height="34.479" style="stroke-linejoin: round; stroke: rgb(0, 0, 0); stroke-width: 4px;"/>
    <rect x="474.227" y="-76.081" width="150.846" height="17.24" style="stroke-linejoin: round; stroke: rgb(0, 0, 0); stroke-width: 4px;"/>
    <g fill="#61dafb" transform="matrix(0.273293, 0, 0, 0.273293, 434.286224, -75.24118)" style="mix-blend-mode: lighten; visibility: hidden;">
      <path d="m666.3 296.5c0-32.5-40.7-63.3-103.1-82.4 14.4-63.6 8-114.2-20.2-130.4-6.5-3.8-14.1-5.6-22.4-5.6v22.3c4.6 0 8.3.9 11.4 2.6 13.6 7.8 19.5 37.5 14.9 75.7-1.1 9.4-2.9 19.3-5.1 29.4-19.6-4.8-41-8.5-63.5-10.9-13.5-18.5-27.5-35.3-41.6-50 32.6-30.3 63.2-46.9 84-46.9v-22.3c-27.5 0-63.5 19.6-99.9 53.6-36.4-33.8-72.4-53.2-99.9-53.2v22.3c20.7 0 51.4 16.5 84 46.6-14 14.7-28 31.4-41.3 49.9-22.6 2.4-44 6.1-63.6 11-2.3-10-4-19.7-5.2-29-4.7-38.2 1.1-67.9 14.6-75.8 3-1.8 6.9-2.6 11.5-2.6v-22.3c-8.4 0-16 1.8-22.6 5.6-28.1 16.2-34.4 66.7-19.9 130.1-62.2 19.2-102.7 49.9-102.7 82.3 0 32.5 40.7 63.3 103.1 82.4-14.4 63.6-8 114.2 20.2 130.4 6.5 3.8 14.1 5.6 22.5 5.6 27.5 0 63.5-19.6 99.9-53.6 36.4 33.8 72.4 53.2 99.9 53.2 8.4 0 16-1.8 22.6-5.6 28.1-16.2 34.4-66.7 19.9-130.1 62-19.1 102.5-49.9 102.5-82.3zm-130.2-66.7c-3.7 12.9-8.3 26.2-13.5 39.5-4.1-8-8.4-16-13.1-24-4.6-8-9.5-15.8-14.4-23.4 14.2 2.1 27.9 4.7 41 7.9zm-45.8 106.5c-7.8 13.5-15.8 26.3-24.1 38.2-14.9 1.3-30 2-45.2 2-15.1 0-30.2-.7-45-1.9-8.3-11.9-16.4-24.6-24.2-38-7.6-13.1-14.5-26.4-20.8-39.8 6.2-13.4 13.2-26.8 20.7-39.9 7.8-13.5 15.8-26.3 24.1-38.2 14.9-1.3 30-2 45.2-2 15.1 0 30.2.7 45 1.9 8.3 11.9 16.4 24.6 24.2 38 7.6 13.1 14.5 26.4 20.8 39.8-6.3 13.4-13.2 26.8-20.7 39.9zm32.3-13c5.4 13.4 10 26.8 13.8 39.8-13.1 3.2-26.9 5.9-41.2 8 4.9-7.7 9.8-15.6 14.4-23.7 4.6-8 8.9-16.1 13-24.1zm-101.4 106.7c-9.3-9.6-18.6-20.3-27.8-32 9 .4 18.2.7 27.5.7 9.4 0 18.7-.2 27.8-.7-9 11.7-18.3 22.4-27.5 32zm-74.4-58.9c-14.2-2.1-27.9-4.7-41-7.9 3.7-12.9 8.3-26.2 13.5-39.5 4.1 8 8.4 16 13.1 24s9.5 15.8 14.4 23.4zm73.9-208.1c9.3 9.6 18.6 20.3 27.8 32-9-.4-18.2-.7-27.5-.7-9.4 0-18.7.2-27.8.7 9-11.7 18.3-22.4 27.5-32zm-74 58.9c-4.9 7.7-9.8 15.6-14.4 23.7-4.6 8-8.9 16-13 24-5.4-13.4-10-26.8-13.8-39.8 13.1-3.1 26.9-5.8 41.2-7.9zm-90.5 125.2c-35.4-15.1-58.3-34.9-58.3-50.6s22.9-35.6 58.3-50.6c8.6-3.7 18-7 27.7-10.1 5.7 19.6 13.2 40 22.5 60.9-9.2 20.8-16.6 41.1-22.2 60.6-9.9-3.1-19.3-6.5-28-10.2zm53.8 142.9c-13.6-7.8-19.5-37.5-14.9-75.7 1.1-9.4 2.9-19.3 5.1-29.4 19.6 4.8 41 8.5 63.5 10.9 13.5 18.5 27.5 35.3 41.6 50-32.6 30.3-63.2 46.9-84 46.9-4.5-.1-8.3-1-11.3-2.7zm237.2-76.2c4.7 38.2-1.1 67.9-14.6 75.8-3 1.8-6.9 2.6-11.5 2.6-20.7 0-51.4-16.5-84-46.6 14-14.7 28-31.4 41.3-49.9 22.6-2.4 44-6.1 63.6-11 2.3 10.1 4.1 19.8 5.2 29.1zm38.5-66.7c-8.6 3.7-18 7-27.7 10.1-5.7-19.6-13.2-40-22.5-60.9 9.2-20.8 16.6-41.1 22.2-60.6 9.9 3.1 19.3 6.5 28.1 10.2 35.4 15.1 58.3 34.9 58.3 50.6-.1 15.7-23 35.6-58.4 50.6z"/>
      <circle cx="420.9" cy="296.5" r="45.7"/>
    </g>
    <rect width="172.395" height="129.296" style="stroke-linejoin: round; stroke-width: 16px; stroke: rgb(0, 92, 198); fill: rgba(0, 92, 198, 0.53);" x="463.453" y="-58.841">
      <title>Viewport</title>
    </rect>
    <polygon style="fill: rgb(255, 204, 0); stroke-width: 7px; stroke-linejoin: round; stroke: rgb(255, 204, 0);" points="571.82 -39.268 518.973 13.578 547.589 13.578 530.196 55.569 585.65 0.116 561.73 0.116"/>
  </g>
</svg>