<?xml version="1.0" encoding="utf-8"?>
<svg viewBox="83.713 126.564 322.891 195.861" xmlns="http://www.w3.org/2000/svg">
  <g>
    <title>Bg</title>
    <rect x="198.193" y="320.943" width="208.412" height="0.688" fill="#e6e6e6" style=""/>
    <path d="M 355.568 265.445 C 360.124 271.885 361.328 308.541 361.596 320.291 C 361.603 320.555 361.61 320.806 361.613 321.044 L 373.146 321.044 C 373.287 320.793 373.418 320.545 373.542 320.291 C 380.378 306.798 376.585 290.619 376.386 289.801 C 376.905 292.373 374.556 299.827 371.902 307.049 C 370.282 284.845 356.435 266.566 355.568 265.445 Z" fill="#e6e6e6" style=""/>
    <path d="M 100.42 207.676 C 87.578 207.676 79.553 193.775 85.973 182.654 C 88.953 177.493 94.46 174.313 100.42 174.313 L 252.243 174.313 C 265.084 174.313 273.11 188.214 266.69 199.335 C 263.71 204.496 258.203 207.676 252.243 207.676 Z" fill="#e6e6e6" style=""/>
    <rect x="116.295" y="176.489" width="29.696" height="29.011" fill="#fff" style=""/>
    <path d="M 252.243 176.489 L 236.892 176.489 L 236.892 205.5 L 252.243 205.5 C 263.41 205.5 270.388 193.412 264.805 183.742 C 262.214 179.254 257.426 176.489 252.243 176.489 Z" fill="#fff" style=""/>
    <rect x="176.694" y="176.489" width="29.494" height="29.011" fill="#fff" style=""/>
    <rect x="146.474" y="176.489" width="29.736" height="29.011" fill="#005cc6" style=""/>
    <rect x="206.672" y="176.489" width="29.736" height="29.011" fill="#e6e6e6" style=""/>
    <path d="M 115.811 176.489 L 100.42 176.489 C 89.253 176.489 82.274 188.577 87.857 198.247 C 90.449 202.735 95.237 205.5 100.42 205.5 L 115.811 205.5 Z" fill="#005cc6" style=""/>
    <polygon points="99.352 196.573 95.314 191.381 97.662 189.554 99.574 192.013 106.034 185.194 108.194 187.241 99.352 196.573" fill="#fff" style=""/>
    <polygon points="158.825 196.573 154.786 191.381 157.134 189.554 159.046 192.013 165.506 185.194 167.666 187.241 158.825 196.573" fill="#fff" style=""/>
    <rect x="181.5" y="75.998" width="1.894" height="12.727" transform="matrix(0.707107, -0.707107, 0.707107, 0.707107, 34.05468, 261.765625)" fill="#fff" style=""/>
    <rect x="176.557" y="81.415" width="12.727" height="1.894" transform="matrix(0.707107, -0.707107, 0.707107, 0.707107, 34.193405, 262.100525)" fill="#fff" style=""/>
    <path d="M 131.085 199.692 C 124.385 199.692 120.198 192.439 123.547 186.637 C 126.897 180.835 135.272 180.835 138.622 186.637 C 139.386 187.96 139.788 189.461 139.788 190.989 C 139.783 195.793 135.889 199.687 131.085 199.692 Z M 131.085 184.22 C 125.874 184.22 122.617 189.861 125.222 194.373 C 127.828 198.886 134.341 198.886 136.947 194.373 C 137.541 193.344 137.854 192.177 137.854 190.989 C 137.85 187.252 134.821 184.224 131.085 184.22 Z" fill="#e6e6e6" style=""/>
    <path d="M 191.524 199.692 C 184.824 199.692 180.637 192.439 183.987 186.637 C 187.337 180.835 195.711 180.835 199.061 186.637 C 199.825 187.96 200.227 189.461 200.227 190.989 C 200.222 195.793 196.328 199.687 191.524 199.692 Z M 191.524 184.22 C 186.313 184.22 183.056 189.861 185.662 194.373 C 188.267 198.886 194.781 198.886 197.386 194.373 C 197.98 193.344 198.293 192.177 198.293 190.989 C 198.289 187.252 195.261 184.224 191.524 184.22 Z" fill="#e6e6e6" style=""/>
    <path d="M 251.722 199.692 C 245.022 199.692 240.835 192.439 244.184 186.637 C 247.534 180.835 255.909 180.835 259.259 186.637 C 260.023 187.96 260.425 189.461 260.425 190.989 C 260.42 195.793 256.526 199.687 251.722 199.692 Z M 251.722 184.22 C 246.511 184.22 243.254 189.861 245.859 194.373 C 248.465 198.886 254.978 198.886 257.584 194.373 C 258.178 193.344 258.491 192.177 258.491 190.989 C 258.487 187.252 255.458 184.224 251.722 184.22 Z" fill="#e6e6e6" style=""/>
    <path d="M 331.613 238.339 L 327.959 248.531 C 327.388 250.124 328.017 251.898 329.464 252.775 L 329.464 252.775 C 331.685 254.121 334.554 252.71 334.844 250.129 L 336.003 239.803 L 344.785 210.774 L 337.223 207.115 Z" fill="#a0616a" style=""/>
    <polygon points="328.563 315.303 333.93 315.303 333.93 263.099 321.733 262.855 328.563 315.303" fill="#a0616a" style=""/>
    <polygon points="304.657 315.303 310.023 315.303 310.023 263.099 297.826 262.855 304.657 315.303" fill="#a0616a" style=""/>
    <path d="M 334.784 268.588 L 320.879 267.124 L 317.952 251.756 L 312.585 267.368 L 295.997 265.661 L 302.827 239.803 C 315.313 231.319 327.171 231.504 338.443 239.803 Z" fill="#2f2e41" style=""/>
    <path d="M 311.209 317.526 C 311.564 320.365 309.133 322.77 306.299 322.385 L 296.412 321.044 C 294.571 320.757 293.31 319.034 293.593 317.192 L 293.593 317.192 C 293.847 315.544 295.265 314.327 296.933 314.327 L 298.563 314.327 L 303.926 309.441 C 303.979 312.769 306.43 312.03 310.481 311.705 Z" fill="#2f2e41" style=""/>
    <path d="M 335.115 317.526 C 335.47 320.365 333.04 322.77 330.205 322.385 L 320.318 321.044 C 318.477 320.757 317.216 319.034 317.5 317.192 L 317.5 317.192 C 317.753 315.544 319.172 314.327 320.839 314.327 L 322.469 314.327 L 327.833 309.441 C 327.885 312.769 330.337 312.03 334.387 311.705 Z" fill="#2f2e41" style=""/>
    <circle cx="316.061" cy="171.194" r="8.599" fill="#a0616a" style=""/>
    <polygon points="326.978 185.648 316.244 186.623 316.244 177.11 321.855 173.694 326.978 185.648" fill="#a0616a" style=""/>
    <path d="M 339.663 243.462 C 328.864 235.555 315.899 236.358 301.608 242.486 C 308.082 224.157 310.84 207.074 305.755 192.623 C 305.755 187.37 309.314 182.786 314.403 181.484 L 316.244 181.013 L 325.27 181.501 L 333.746 186.469 C 337.262 188.531 339.43 192.294 339.449 196.371 Z" fill="#005cc6" style=""/>
    <path d="M 297.949 236.388 L 294.295 246.58 C 293.724 248.172 294.353 249.947 295.8 250.823 L 295.8 250.823 C 298.021 252.17 300.89 250.759 301.18 248.178 L 302.339 237.851 L 311.121 208.822 L 303.559 205.163 Z" fill="#a0616a" style=""/>
    <path d="M 346.737 216.384 L 334.784 216.384 L 334.784 187.111 L 334.784 187.111 C 338.967 189.435 341.934 193.461 342.915 198.145 Z" fill="#005cc6" style=""/>
    <path d="M 309.505 166.538 C 308.438 167.042 307.188 166.975 306.182 166.358 C 305.185 165.7 304.752 164.456 305.125 163.321 C 305.487 162.389 306.405 161.805 307.295 161.349 C 309.259 160.344 311.363 159.641 313.537 159.264 C 314.574 159.085 315.671 158.986 316.651 159.369 C 317.135 159.559 317.57 159.859 318.051 160.058 C 318.936 160.422 319.922 160.424 320.859 160.622 C 322.798 161.046 324.458 162.29 325.41 164.032 C 325.718 164.618 325.954 165.239 326.114 165.881 C 326.565 167.638 326.559 169.482 326.097 171.236 C 325.361 174.016 323.487 176.57 323.655 179.44 C 322.27 178.633 321.621 176.99 320.464 175.88 C 319.604 175.06 318.491 174.556 317.307 174.451 C 316.984 174.463 316.663 174.382 316.385 174.216 C 316.184 174.019 316.044 173.767 315.984 173.491 L 314.681 169.408 C 314.416 168.578 314.095 167.675 313.346 167.229 C 312.883 166.995 312.373 166.871 311.854 166.867 C 310.615 166.777 309.369 166.788 308.132 166.902" fill="#2f2e41" style=""/>
    <path d="M 312.341 211.018 L 298.436 205.651 L 304.751 188.637 C 306.253 184.59 309.986 181.798 314.293 181.501 L 314.293 181.501 Z" fill="#005cc6" style=""/>
  </g>
  <g style="" transform="matrix(0.114993, 0, 0, 0.114993, 100.075142, 122.069145)">
    <title>Logo</title>
    <rect x="478.008" y="99.09" width="350" height="40" style="stroke-linejoin: round; stroke: rgb(0, 0, 0); stroke-width: 4px;"/>
    <rect x="478.008" y="159.09" width="350" height="80" style="stroke-linejoin: round; stroke: rgb(0, 0, 0); stroke-width: 4px;"/>
    <rect x="478.008" y="259.09" width="350" height="60" style="stroke-linejoin: round; stroke: rgb(0, 0, 0); stroke-width: 4px;"/>
    <rect x="478.008" y="339.09" width="350" height="80" style="stroke-linejoin: round; stroke: rgb(0, 0, 0); stroke-width: 4px;"/>
    <rect x="478.008" y="39.09" width="350" height="40" style="stroke-linejoin: round; stroke: rgb(0, 0, 0); stroke-width: 4px;"/>
    <g fill="#61dafb" transform="matrix(0.634109, 0, 0, 0.634109, 385.334625, 41.038319)" style="mix-blend-mode: lighten; visibility: hidden;">
      <path d="m666.3 296.5c0-32.5-40.7-63.3-103.1-82.4 14.4-63.6 8-114.2-20.2-130.4-6.5-3.8-14.1-5.6-22.4-5.6v22.3c4.6 0 8.3.9 11.4 2.6 13.6 7.8 19.5 37.5 14.9 75.7-1.1 9.4-2.9 19.3-5.1 29.4-19.6-4.8-41-8.5-63.5-10.9-13.5-18.5-27.5-35.3-41.6-50 32.6-30.3 63.2-46.9 84-46.9v-22.3c-27.5 0-63.5 19.6-99.9 53.6-36.4-33.8-72.4-53.2-99.9-53.2v22.3c20.7 0 51.4 16.5 84 46.6-14 14.7-28 31.4-41.3 49.9-22.6 2.4-44 6.1-63.6 11-2.3-10-4-19.7-5.2-29-4.7-38.2 1.1-67.9 14.6-75.8 3-1.8 6.9-2.6 11.5-2.6v-22.3c-8.4 0-16 1.8-22.6 5.6-28.1 16.2-34.4 66.7-19.9 130.1-62.2 19.2-102.7 49.9-102.7 82.3 0 32.5 40.7 63.3 103.1 82.4-14.4 63.6-8 114.2 20.2 130.4 6.5 3.8 14.1 5.6 22.5 5.6 27.5 0 63.5-19.6 99.9-53.6 36.4 33.8 72.4 53.2 99.9 53.2 8.4 0 16-1.8 22.6-5.6 28.1-16.2 34.4-66.7 19.9-130.1 62-19.1 102.5-49.9 102.5-82.3zm-130.2-66.7c-3.7 12.9-8.3 26.2-13.5 39.5-4.1-8-8.4-16-13.1-24-4.6-8-9.5-15.8-14.4-23.4 14.2 2.1 27.9 4.7 41 7.9zm-45.8 106.5c-7.8 13.5-15.8 26.3-24.1 38.2-14.9 1.3-30 2-45.2 2-15.1 0-30.2-.7-45-1.9-8.3-11.9-16.4-24.6-24.2-38-7.6-13.1-14.5-26.4-20.8-39.8 6.2-13.4 13.2-26.8 20.7-39.9 7.8-13.5 15.8-26.3 24.1-38.2 14.9-1.3 30-2 45.2-2 15.1 0 30.2.7 45 1.9 8.3 11.9 16.4 24.6 24.2 38 7.6 13.1 14.5 26.4 20.8 39.8-6.3 13.4-13.2 26.8-20.7 39.9zm32.3-13c5.4 13.4 10 26.8 13.8 39.8-13.1 3.2-26.9 5.9-41.2 8 4.9-7.7 9.8-15.6 14.4-23.7 4.6-8 8.9-16.1 13-24.1zm-101.4 106.7c-9.3-9.6-18.6-20.3-27.8-32 9 .4 18.2.7 27.5.7 9.4 0 18.7-.2 27.8-.7-9 11.7-18.3 22.4-27.5 32zm-74.4-58.9c-14.2-2.1-27.9-4.7-41-7.9 3.7-12.9 8.3-26.2 13.5-39.5 4.1 8 8.4 16 13.1 24s9.5 15.8 14.4 23.4zm73.9-208.1c9.3 9.6 18.6 20.3 27.8 32-9-.4-18.2-.7-27.5-.7-9.4 0-18.7.2-27.8.7 9-11.7 18.3-22.4 27.5-32zm-74 58.9c-4.9 7.7-9.8 15.6-14.4 23.7-4.6 8-8.9 16-13 24-5.4-13.4-10-26.8-13.8-39.8 13.1-3.1 26.9-5.8 41.2-7.9zm-90.5 125.2c-35.4-15.1-58.3-34.9-58.3-50.6s22.9-35.6 58.3-50.6c8.6-3.7 18-7 27.7-10.1 5.7 19.6 13.2 40 22.5 60.9-9.2 20.8-16.6 41.1-22.2 60.6-9.9-3.1-19.3-6.5-28-10.2zm53.8 142.9c-13.6-7.8-19.5-37.5-14.9-75.7 1.1-9.4 2.9-19.3 5.1-29.4 19.6 4.8 41 8.5 63.5 10.9 13.5 18.5 27.5 35.3 41.6 50-32.6 30.3-63.2 46.9-84 46.9-4.5-.1-8.3-1-11.3-2.7zm237.2-76.2c4.7 38.2-1.1 67.9-14.6 75.8-3 1.8-6.9 2.6-11.5 2.6-20.7 0-51.4-16.5-84-46.6 14-14.7 28-31.4 41.3-49.9 22.6-2.4 44-6.1 63.6-11 2.3 10.1 4.1 19.8 5.2 29.1zm38.5-66.7c-8.6 3.7-18 7-27.7 10.1-5.7-19.6-13.2-40-22.5-60.9 9.2-20.8 16.6-41.1 22.2-60.6 9.9 3.1 19.3 6.5 28.1 10.2 35.4 15.1 58.3 34.9 58.3 50.6-.1 15.7-23 35.6-58.4 50.6z"/>
      <circle cx="420.9" cy="296.5" r="45.7"/>
    </g>
    <rect width="400" height="300" style="stroke-linejoin: round; stroke-width: 16px; stroke: rgb(0, 92, 198); fill: rgba(0, 92, 198, 0.53);" x="453.008" y="79.09">
      <title>Viewport</title>
    </rect>
    <polygon style="fill: rgb(255, 204, 0); stroke-width: 7px; stroke-linejoin: round; stroke: rgb(255, 204, 0);" points="704.448 124.504 581.829 247.122 648.226 247.122 607.869 344.552 736.536 215.885 681.036 215.885"/>
  </g>
</svg>