<?xml version="1.0" encoding="utf-8"?>
<svg viewBox="152.168 150.058 237.041 187.275" xmlns="http://www.w3.org/2000/svg">
  <g style="" transform="matrix(0.306605, 0, 0, 0.306605, 176.122467, 141.198547)">
    <rect id="e81a7c33-c795-457d-8abc-c4a3c260cd56" data-name="Rectangle 62" x="231.347" y="41.605" width="463.641" height="220.006" fill="#e6e6e6"/>
    <rect id="be98c830-918a-42d1-b1b0-0085d5874e90" data-name="Rectangle 75" x="244.605" y="60.471" width="437.126" height="183.558" fill="#fff"/>
    <rect id="ea07d9fd-7a34-4098-acd7-056fd1871281" data-name="Rectangle 80" x="231.149" width="463.641" height="19.697" fill="#005cc6" y="28.894"/>
    <circle id="b9ed5a45-8896-4ed9-86b4-15f853c9a185" data-name="Ellipse 90" cx="245.786" cy="40.476" r="3.651" fill="#fff"/>
    <circle id="a9233a38-f8ba-48e0-88f3-496fd4836d40" data-name="Ellipse 91" cx="259.643" cy="40.476" r="3.651" fill="#fff"/>
    <circle id="aa82180f-a6a9-4f5f-82fc-e73106f4ad92" data-name="Ellipse 92" cx="273.501" cy="40.476" r="3.651" fill="#fff"/>
    <rect x="506.145" y="90.173" width="72.676" height="124.155" fill="#f2f2f2"/>
    <path d="M 143.076 395.995 C 143.136 385.327 133.893 376.984 123.287 378.133 C 122.495 378.222 121.71 378.367 120.939 378.565 L 60.475 326.738 L 64.088 307.263 L 34.286 297.604 L 25.301 328.815 C 23.118 336.507 26.24 344.72 32.981 349.019 L 107.362 396.064 C 107.363 396.649 107.393 397.234 107.454 397.816 C 108.605 408.423 118.736 415.664 129.145 413.318 C 129.858 413.16 130.561 412.957 131.25 412.71 C 138.3 410.161 143.019 403.492 143.076 395.995 Z" fill="#9f616a"/>
    <path d="M -7.245 456.103 L 70.713 456.103 C 70.713 458.344 151.059 460.162 151.059 460.162 C 152.32 461.112 153.469 462.201 154.485 463.41 C 157.536 467.05 159.204 471.65 159.194 476.4 L 159.194 479.648 C 159.19 490.856 150.105 499.941 138.897 499.945 L -7.245 499.945 C -18.451 499.936 -27.533 490.854 -27.542 479.648 L -27.542 476.4 C -27.527 465.197 -18.448 456.118 -7.245 456.103 Z" fill="#3f3d56"/>
    <rect x="56.446" y="499.139" width="21.109" height="136.399" fill="#3f3d56"/>
    <path d="M 137.636 637.234 C 137.636 639.788 105.648 638.222 66.189 638.222 C 26.73 638.222 -5.258 639.788 -5.258 637.234 C -5.258 634.681 26.73 614.429 66.189 614.429 C 105.648 614.429 137.636 634.681 137.636 637.234 Z" fill="#3f3d56"/>
    <polygon points="118.58 618.81 138.486 618.808 147.957 567.176 118.576 567.178 118.58 618.81" fill="#9f616a"/>
    <path d="M 113.503 638.106 L 177.692 638.104 L 177.692 637.292 C 177.692 623.493 166.507 612.308 152.709 612.308 L 152.706 612.308 L 113.501 612.309 Z" fill="#2f2e41"/>
    <path d="M 148.354 586.791 L 188.042 497.795 C 194.913 482.24 188.68 464.016 173.722 455.927 L 87.639 409.766 L 48.357 406.425 L 12.123 403.131 L 11.862 403.574 C 11.527 404.138 3.737 417.595 9.003 432.35 C 12.998 443.542 23.388 452.284 39.886 458.334 C 78.393 472.453 122.876 484.521 140.214 489.053 C 141.764 489.449 143.07 490.489 143.805 491.91 C 144.54 493.314 144.656 494.962 144.123 496.455 L 107.253 579.292 C 105.602 583.795 108.663 588.64 113.438 589.083 L 140.988 591.089 C 141.222 591.111 141.455 591.122 141.687 591.122 C 144.569 591.121 147.182 589.424 148.354 586.791 Z" fill="#cbcbcb"/>
    <polygon points="105.589 618.81 125.495 618.808 134.967 567.176 105.586 567.178 105.589 618.81" fill="#9f616a"/>
    <path d="M 100.512 638.106 L 164.702 638.104 L 164.702 637.292 C 164.702 623.493 153.516 612.308 139.718 612.308 L 139.716 612.308 L 100.511 612.309 Z" fill="#2f2e41"/>
    <path d="M 133.74 591.663 L 173.427 502.666 C 180.299 487.111 174.066 468.887 159.108 460.798 L 73.025 414.637 L 33.743 411.296 L 5.363 408.834 L 5.366 408.445 C 5.032 409.009 -2.758 422.466 2.508 437.221 C 6.502 448.413 8.774 457.156 25.271 463.205 C 63.779 477.325 108.262 489.392 125.6 493.924 C 127.15 494.321 128.456 495.36 129.19 496.782 C 129.926 498.186 130.042 499.833 129.509 501.326 L 92.638 584.164 C 90.988 588.666 94.049 593.511 98.824 593.954 L 126.374 595.96 C 126.608 595.982 126.841 595.993 127.073 595.993 C 129.955 595.992 132.567 594.296 133.74 591.663 Z" fill="#cbcbcb"/>
    <path d="M 58.948 410.458 C 60.851 409.112 88.176 423.448 93.048 412.082 C 70.314 355.249 85.98 330.707 72.055 298.117 C 67.086 286.728 57.173 278.243 45.154 275.092 L 9.025 273.268 L 8.838 273.358 C -7.903 281.558 -17.286 299.764 -14.251 318.156 C -14.123 353.625 7.099 380.677 -0.322 406.403 C -0.95 408.577 -0.667 410.912 0.464 412.872 C 1.561 414.766 3.392 416.123 5.524 416.621 L 53.228 410.258 C 55.483 410.794 57.859 410.334 59.75 408.995 Z" fill="#2f2e41"/>
    <circle cx="21.082" cy="219.892" r="39.882" fill="#9f616a"/>
    <path d="M 8.379 256.498 C 10.498 257.426 14.837 240.541 12.893 237.164 C 10.003 232.142 10.173 232.178 8.254 228.855 C 6.335 225.532 5.906 220.984 8.391 218.061 C 10.876 215.137 16.627 215.525 17.761 219.19 C 17.032 212.228 23.918 206.631 30.74 205.058 C 37.562 203.486 44.757 204.462 51.617 203.062 C 59.577 201.438 67.86 194.765 64.684 186.011 C 64.139 184.554 63.323 183.213 62.279 182.059 C 58.609 177.933 53.476 176.171 48.457 174.468 C 38.016 170.924 27.289 167.335 16.27 167.727 C -1.836 168.369 -18.95 180.885 -25.05 197.944 C -25.809 200.073 -26.397 202.258 -26.809 204.481 C -30.591 224.817 -18.781 244.877 0.4 252.621 Z" fill="#2f2e41"/>
    <path d="M 217.528 320.632 L 222.101 347.788 C 222.152 348.091 222.119 348.402 222.005 348.687 L 186.124 438.34 C 185.646 439.535 184.054 439.764 183.258 438.753 C 183.042 438.477 182.917 438.14 182.902 437.79 L 181.382 401.762 C 181.372 401.523 181.414 401.284 181.504 401.062 L 214.331 320.28 C 214.815 319.088 216.408 318.867 217.199 319.883 C 217.369 320.102 217.482 320.359 217.528 320.632 Z" fill="#3f3d56"/>
    <polygon points="214.987 322.717 219.333 346.047 187.492 427.858 183.358 401.541 214.987 322.717" fill="#005cc6"/>
    <path d="M 75.678 437.923 C 76.461 440.981 179.318 444.292 180.384 443.367 C 181.341 442.181 182.171 440.898 182.858 439.539 C 183.936 437.614 184.934 435.683 184.934 435.683 L 183.244 403.154 L 81.923 392.326 C 81.923 392.326 77.44 419.472 76.033 431.943 C 75.715 433.92 75.596 435.923 75.678 437.923 Z" fill="#3f3d56"/>
    <polygon points="169.987 406.596 169.996 434.621 125.182 431.435 127.165 403.551 169.987 406.596" opacity="0.1" style="isolation:isolate"/>
    <polygon points="111.59 411.451 111.861 411.417 109.745 423.331 84.848 421.561 85.698 409.61 111.59 411.451" opacity="0.1" style="isolation:isolate"/>
    <path d="M 75.678 437.923 C 76.461 440.981 179.318 444.292 180.384 443.367 C 181.341 442.181 182.171 440.898 182.858 439.539 L 76.033 431.943 C 75.715 433.92 75.596 435.923 75.678 437.923 Z" opacity="0.1" style="isolation:isolate"/>
    <path d="M 34.377 389.347 L 121.141 405.539 C 121.358 406.082 121.603 406.614 121.874 407.132 C 124.259 411.618 128.436 414.879 133.366 416.105 C 138.317 417.35 143.565 416.399 147.764 413.496 C 159.101 405.713 157.761 388.576 145.352 382.649 C 140.247 380.211 134.289 380.335 129.289 382.984 C 128.587 383.361 127.912 383.786 127.269 384.256 L 51.908 358.512 L 48.051 339.083 L 16.792 341.151 L 20.031 373.721 C 20.838 381.526 26.669 387.877 34.377 389.347 Z" fill="#9f616a"/>
    <path d="M 15.733 355.679 L 61.155 340.75 L 50.56 310.327 C 47.655 301.986 39.164 296.951 30.452 298.403 L 30.452 298.403 C 21.633 299.873 15.201 307.552 15.3 316.492 Z" fill="#2f2e41"/>
    <path d="M 303.873 639.697 L -77.127 639.697 C -77.896 639.697 -78.378 638.864 -77.993 638.197 C -77.814 637.888 -77.484 637.697 -77.127 637.697 L 303.873 637.697 C 304.643 637.697 305.124 638.531 304.739 639.197 C 304.561 639.507 304.231 639.697 303.873 639.697 Z" fill="#cbcbcb"/>
    <path d="M 452.08 608.191 C 470.354 617.648 478.479 638.24 478.479 638.24 C 478.479 638.24 456.976 643.498 438.702 634.04 C 420.429 624.583 412.304 603.992 412.304 603.992 C 412.304 603.992 433.807 598.734 452.08 608.191 Z" fill="#f1f1f1"/>
    <path d="M 446.237 615.003 C 457.141 632.452 478.323 638.884 478.323 638.884 C 478.323 638.884 481.824 617.026 470.919 599.578 C 460.015 582.129 438.833 575.697 438.833 575.697 C 438.833 575.697 435.332 597.554 446.237 615.003 Z" fill="#f1f1f1"/>
    <path d="M 511.873 639.301 L 397.873 639.301 C 397.104 639.301 396.622 638.467 397.007 637.801 C 397.186 637.491 397.516 637.301 397.873 637.301 L 511.873 637.301 C 512.643 637.301 513.124 638.134 512.739 638.801 C 512.561 639.11 512.231 639.301 511.873 639.301 Z" fill="#cbcbcb"/>
  </g>
  <g style="" transform="matrix(0.114993, 0, 0, 0.114993, 227.740189, 160.486862)">
    <title>Logo</title>
    <rect x="478.008" y="99.09" width="350" height="40" style="stroke-linejoin: round; stroke: rgb(0, 0, 0); stroke-width: 4px;"/>
    <rect x="478.008" y="159.09" width="350" height="80" style="stroke-linejoin: round; stroke: rgb(0, 0, 0); stroke-width: 4px;"/>
    <rect x="478.008" y="259.09" width="350" height="60" style="stroke-linejoin: round; stroke: rgb(0, 0, 0); stroke-width: 4px;"/>
    <rect x="478.008" y="339.09" width="350" height="80" style="stroke-linejoin: round; stroke: rgb(0, 0, 0); stroke-width: 4px;"/>
    <rect x="478.008" y="39.09" width="350" height="40" style="stroke-linejoin: round; stroke: rgb(0, 0, 0); stroke-width: 4px;"/>
    <rect width="400" height="300" style="stroke-linejoin: round; stroke-width: 16px; stroke: rgb(0, 92, 198); fill: rgba(0, 92, 198, 0.53);" x="453.008" y="79.09">
      <title>Viewport</title>
    </rect>
    <polygon style="fill: rgb(255, 204, 0); stroke-width: 7px; stroke-linejoin: round; stroke: rgb(255, 204, 0);" points="704.448 124.504 581.829 247.122 648.226 247.122 607.869 344.552 736.536 215.885 681.036 215.885"/>
  </g>
</svg>